<?xml version="1.0" encoding="UTF-8" standalone="no"?>
<svg
   xmlns:dc="http://purl.org/dc/elements/1.1/"
   xmlns:cc="http://creativecommons.org/ns#"
   xmlns:rdf="http://www.w3.org/1999/02/22-rdf-syntax-ns#"
   xmlns:svg="http://www.w3.org/2000/svg"
   xmlns="http://www.w3.org/2000/svg"
   height="320"
   width="435"
   xml:space="preserve"
   version="1.1"
   id="svg2"><metadata
     id="metadata8"><rdf:RDF><cc:Work
         rdf:about=""><dc:format>image/svg+xml</dc:format><dc:type
           rdf:resource="http://purl.org/dc/dcmitype/StillImage" /></cc:Work></rdf:RDF></metadata><defs
     id="defs6"><clipPath
       id="clipPath16"
       clipPathUnits="userSpaceOnUse"><path
         id="path18"
         d="m 0,841.89 595.28,0 L 595.28,0 0,0 0,841.89 Z" /></clipPath></defs><g
     transform="matrix(1.25, 0, 0, -1.25, -158, 703)"
     id="g10"><g
       id="g12"><g
         clip-path="url(#clipPath16)"
         id="g14"><g
           transform="translate(388.6553,429.7924)"
           id="g20"><path
             id="path22"
             style="fill:#2b2b2a;fill-opacity:1;fill-rule:nonzero;stroke:none"
             d="m 0,0 57.069,0 c 1.013,0 2.012,0.233 2.92,0.683 l 0.001,0 c 4.892,2.421 4.886,9.399 -0.011,11.81 l -0.05,0.025 c -0.906,0.446 -1.901,0.678 -2.909,0.678 L 0.001,13.199 c -3.645,0 -6.6,-2.954 -6.6,-6.599 l 0,-10e-4 C -6.599,2.954 -3.645,0 0,0" /></g><g
           transform="translate(388.625,383.3519)"
           id="g24"><path
             id="path26"
             style="fill:#2b2b2a;fill-opacity:1;fill-rule:nonzero;stroke:none"
             d="m 0,0 12.393,0 c 1.012,0 2.011,0.233 2.92,0.683 l 0,0.001 c 4.892,2.42 4.886,9.399 -0.01,11.809 l -0.05,0.025 c -0.905,0.446 -1.9,0.677 -2.91,0.678 L 0.001,13.198 C -3.644,13.199 -6.6,10.244 -6.6,6.6 -6.6,2.955 -3.645,0 0,0" /></g><g
           transform="translate(388.5986,406.5189)"
           id="g28"><path
             id="path30"
             style="fill:#2b2b2a;fill-opacity:1;fill-rule:nonzero;stroke:none"
             d="m 0,0 33.148,0 c 1.013,0 2.012,0.233 2.92,0.684 l 0.001,0 c 4.892,2.42 4.885,9.399 -0.01,11.809 l -0.051,0.026 c -0.905,0.445 -1.901,0.677 -2.909,0.677 L 0.001,13.199 c -3.645,0 -6.6,-2.954 -6.6,-6.599 C -6.599,2.955 -3.645,0 0,0" /></g><g
           transform="translate(388.5986,453.2675)"
           id="g32"><path
             id="path34"
             style="fill:#2b2b2a;fill-opacity:1;fill-rule:nonzero;stroke:none"
             d="m 0,0 79.773,0 c 1.013,0 2.012,0.234 2.92,0.683 l 0.001,0.001 c 4.892,2.42 4.885,9.399 -0.01,11.81 l -0.051,0.025 c -0.905,0.445 -1.901,0.677 -2.909,0.677 L 0.001,13.199 c -3.645,10e-4 -6.6,-2.954 -6.6,-6.598 l 0,-0.002 C -6.599,2.955 -3.645,0 0,0" /></g><g
           transform="translate(213.2876,429.7948)"
           id="g36"><path
             id="path38"
             style="fill:#2b2b2a;fill-opacity:1;fill-rule:nonzero;stroke:none"
             d="m 0,0 -57.068,0 c -1.014,0 -2.013,0.233 -2.921,0.683 l -0.001,0 c -4.892,2.421 -4.885,9.399 0.011,11.81 l 0.051,0.025 c 0.905,0.446 1.9,0.678 2.908,0.678 L 0,13.199 c 3.645,0 6.599,-2.954 6.599,-6.599 l 0,-10e-4 C 6.599,2.954 3.645,0 0,0" /></g><g
           transform="translate(213.3188,383.3549)"
           id="g40"><path
             id="path42"
             style="fill:#2b2b2a;fill-opacity:1;fill-rule:nonzero;stroke:none"
             d="m 0,0 -12.393,0 c -1.013,0 -2.012,0.233 -2.92,0.683 l -10e-4,0 c -4.892,2.421 -4.885,9.399 0.011,11.81 l 0.05,0.025 c 0.905,0.445 1.9,0.677 2.909,0.677 l 12.343,0.002 c 3.645,0.001 6.6,-2.953 6.6,-6.598 C 6.599,2.954 3.645,0 0,0" /></g><g
           transform="translate(213.3442,406.5219)"
           id="g44"><path
             id="path46"
             style="fill:#2b2b2a;fill-opacity:1;fill-rule:nonzero;stroke:none"
             d="m 0,0 -33.147,0 c -1.014,0 -2.013,0.233 -2.921,0.683 l -0.001,0.001 c -4.891,2.42 -4.885,9.398 0.011,11.809 l 0.051,0.025 c 0.904,0.446 1.9,0.677 2.909,0.677 L 0,13.198 C 3.645,13.199 6.599,10.244 6.599,6.6 l 0,-10e-4 C 6.599,2.954 3.645,0 0,0" /></g><g
           transform="translate(213.3442,453.2699)"
           id="g48"><path
             id="path50"
             style="fill:#2b2b2a;fill-opacity:1;fill-rule:nonzero;stroke:none"
             d="m 0,0 -79.772,0 c -1.014,0 -2.013,0.234 -2.921,0.683 l -0.001,0.001 c -4.891,2.42 -4.885,9.399 0.011,11.81 l 0.051,0.025 c 0.905,0.445 1.9,0.677 2.909,0.677 L 0,13.199 C 3.645,13.2 6.599,10.245 6.599,6.601 l 0,-0.002 C 6.599,2.955 3.645,0 0,0" /></g><g
           transform="translate(359.5498,381.1156)"
           id="g52"><path
             id="path54"
             style="fill:#2b2b2a;fill-opacity:1;fill-rule:nonzero;stroke:none"
             d="m 0,0 -58.577,-58.578 0,0.001 -58.579,58.579 0,83.737 51.954,39.237 0,-20.991 -22.265,-16.068 -0.011,0.015 -4.437,-3.226 -4.033,-2.911 -2.068,-1.524 -2.358,-1.713 c -0.815,-0.593 -1.484,-1.366 -1.954,-2.258 -2.499,-4.723 1.354,-10.305 6.657,-9.642 l 0.25,0.031 c 0.921,0.157 1.787,0.529 2.561,1.05 l 0.001,-0.003 0.018,0.013 c 0.058,0.04 0.127,0.063 0.184,0.105 l 2.282,1.657 1.882,1.345 0.007,0.028 3.928,2.853 19.356,13.97 0,-20.533 -21.236,-15.317 -11.546,-8.591 c -0.816,-0.593 -1.485,-1.366 -1.955,-2.258 -2.513,-4.778 1.446,-10.391 6.791,-9.627 l 0.116,0.016 c 0.999,0.17 1.945,0.569 2.764,1.165 l 1.773,1.486 0.002,-0.003 0.002,0.005 7.727,5.615 15.562,11.231 0,-19.001 c 0,-0.962 -0.462,-1.867 -1.242,-2.429 l -12.378,-8.924 -0.004,0.005 -1.26,-0.916 -9.645,-6.954 0.03,-0.035 -2.02,-1.468 c -0.816,-0.594 -1.485,-1.366 -1.955,-2.259 -2.512,-4.777 1.447,-10.391 6.791,-9.627 l 0.116,0.017 c 0.888,0.151 1.72,0.508 2.472,0.999 l 0.004,0.002 c 0.092,0.06 0.198,0.097 0.288,0.163 l 9.456,6.869 9.347,6.747 0,-38.219 0.068,0 0.001,-0.001 c 0.011,-0.983 0.235,-1.953 0.669,-2.836 l 0.025,-0.05 c 1.199,-2.434 3.526,-3.654 5.861,-3.67 l 0,-0.003 c 2.334,0.016 4.662,1.236 5.86,3.67 l 0.026,0.05 c 0.434,0.883 0.658,1.853 0.669,2.836 l 0.001,0.001 0.067,0 0,38.219 9.349,-6.746 9.455,-6.87 c 0.089,-0.066 0.195,-0.102 0.289,-0.162 l 0.003,-0.002 c 0.753,-0.49 1.584,-0.848 2.471,-1 l 0.117,-0.017 c 5.344,-0.763 9.303,4.85 6.792,9.628 -0.471,0.893 -1.14,1.665 -1.956,2.258 l -2.02,1.469 0.029,0.035 -9.644,6.953 -1.261,0.916 -0.003,-0.005 -12.378,8.925 c -0.78,0.562 -1.243,1.466 -1.243,2.428 l 0,19.002 15.562,-11.232 7.728,-5.614 10e-4,-0.006 0.003,0.003 1.772,-1.486 c 0.821,-0.596 1.766,-0.994 2.765,-1.164 l 0.116,-0.017 c 5.344,-0.764 9.304,4.85 6.791,9.628 -0.47,0.892 -1.138,1.664 -1.955,2.258 l -11.546,8.591 -21.237,15.317 0,20.533 19.356,-13.97 3.929,-2.854 0.006,-0.027 1.884,-1.346 2.281,-1.657 c 0.058,-0.042 0.126,-0.064 0.185,-0.104 l 0.017,-0.013 0.001,0.002 c 0.774,-0.521 1.64,-0.892 2.561,-1.049 l 0.25,-0.031 c 5.302,-0.663 9.156,4.918 6.657,9.642 -0.47,0.892 -1.139,1.664 -1.955,2.258 l -2.358,1.713 -2.067,1.524 -4.033,2.911 -4.438,3.225 -0.01,-0.015 -22.266,16.069 0,20.991 L 0,83.736 0,0 Z m 8.548,93.821 -60.503,45.695 0,36.381 c 0,2.674 -2.167,4.841 -4.841,4.841 l -1.781,0 0,0.003 -1.783,0 c -2.674,0 -4.842,-2.167 -4.842,-4.841 l 0,-36.382 -60.502,-45.694 c -2.93,-2.213 -4.652,-5.672 -4.652,-9.343 l 0,-82.099 c 0,-5.025 1.996,-9.844 5.549,-13.398 l 58.552,-58.549 4.108,-4.109 c 0.984,-0.983 2.28,-1.458 3.569,-1.436 l 0,-0.002 c 1.289,-0.023 2.585,0.452 3.569,1.436 l 4.108,4.109 58.551,58.549 c 3.553,3.553 5.55,8.372 5.55,13.398 l 0,82.099 c 0,3.671 -1.722,7.129 -4.652,9.342" /></g></g></g></g></svg>
